# xmcd CD database file
#
# Track frame offsets:
#	150
#	21723
#	44739
#	68885
#	91432
#	111966
#	131564
#	152076
#	176919
#	199068
#	223651
#
# Disc length: 3349 seconds
#
# Revision: 0
# Processed by: cddbd v1.5.2PL0 Copyright (c) Steve Scherf et al.
# Submitted via: CDex 1.70beta2
#
DISCID=ac0d130b
DTITLE=Chuck Loeb - When I'm With You
DYEAR=1900
DGENRE=Jazz
TTITLE0=Double Life 
TTITLE1=Tropical 
TTITLE2=Uppercut 
TTITLE3=The Girl From Ipanema
TTITLE4=Brother Ray 
TTITLE5=Anytime, Anywhere 
TTITLE6=When I’m With You 
TTITLE7=Spanish Night
TTITLE8=And Then Some 
TTITLE9=Jumpstart 
TTITLE10=Home, James 
EXTD=
EXTT0=
EXTT1=
EXTT2=
EXTT3=
EXTT4=
EXTT5=
EXTT6=
EXTT7=
EXTT8=
EXTT9=
EXTT10=
PLAYORDER=
